<?xml version="1.0" encoding="UTF-8"?>
<!DOCTYPE svg PUBLIC "-//W3C//DTD SVG 1.1//EN" "http://www.w3.org/Graphics/SVG/1.1/DTD/svg11.dtd">
<!-- Creator: CorelDRAW 2021.5 -->
<svg xmlns="http://www.w3.org/2000/svg" xml:space="preserve" width="250mm" height="193.182mm" version="1.1" style="shape-rendering:geometricPrecision; text-rendering:geometricPrecision; image-rendering:optimizeQuality; fill-rule:evenodd; clip-rule:evenodd"
viewBox="0 0 25000 19318.18"
 xmlns:xlink="http://www.w3.org/1999/xlink"
 xmlns:xodm="http://www.corel.com/coreldraw/odm/2003">
 <defs>
  <style type="text/css">
   <![CDATA[
    .fil9 {fill:#122239}
    .fil6 {fill:#51613C}
    .fil8 {fill:#6D7E55}
    .fil2 {fill:#725D43}
    .fil4 {fill:#967548}
    .fil10 {fill:#9A5B29}
    .fil0 {fill:#AD916D}
    .fil1 {fill:#B88946}
    .fil5 {fill:#BA9558}
    .fil3 {fill:#BDA16B}
    .fil7 {fill:#CAA158}
   ]]>
  </style>
 </defs>
 <g id="Layer_x0020_1">
  <metadata id="CorelCorpID_0Corel-Layer"/>
  <path class="fil0" d="M18399.16 5855.67l-1.62 -193.83c-393.14,-153.07 -387.08,367.7 1.62,193.83z"/>
  <path class="fil0" d="M18754.96 6210.05c72.08,-185.22 -28.07,-280.82 -217.02,-245.3 -48.78,177.52 18.62,339.24 217.02,245.3z"/>
  <path class="fil0" d="M18051.82 6132.9c-53.98,106.6 -33.55,122.65 -5.94,242.9l203.93 17.92c36.29,-172.79 2.44,-353.37 -197.99,-260.83z"/>
  <path class="fil0" d="M17420.65 5575.89l-290.94 -10.85c-1.46,114.05 -5.39,188.24 133.2,208.29 169.26,24.5 167.5,-69.02 157.74,-197.43z"/>
  <path class="fil0" d="M17736.83 5568.27c214.96,84.83 234.47,-12.97 203.81,-202.93 -182.96,-18.47 -271.01,-5.78 -203.81,202.93z"/>
  <path class="fil1" d="M5595.13 11967.19c-171.67,59.47 -364.03,-0.42 -418.46,-173.26 -276.46,-878.02 1184.36,-92.02 418.46,173.26z"/>
  <path class="fil2" d="M14949.11 2028.65c-357.31,127 -159.57,682.34 207.7,551.12 341.89,-122.15 173,-686.44 -207.7,-551.12z"/>
  <path class="fil2" d="M8846.81 4110.24l96.99 -108.63c90.73,-193.45 -150.79,-440.96 -365.96,-279.22 -55.68,41.86 -261.91,417.76 268.97,387.86z"/>
  <path class="fil3" d="M13216.59 7827.36c368.06,-155.38 49.4,-892.19 461.51,-1171.32 4.69,-222.8 -127.15,-375.37 -313.38,-230.02 -141.93,110.78 76.08,265.27 -41.79,656.16 -30.51,101.2 -38.6,25.36 -58.79,203.65 -20.79,183.75 -53.56,355.12 -47.55,541.53z"/>
  <path class="fil3" d="M11888.22 7810.25c-12.43,-283.06 -104.72,-542.05 -155.06,-816.88 -45.97,-250.92 -4.91,-227.44 11.35,-426.21 13.83,-169.17 -148.17,-236.01 -265.96,-162.97 -175.17,108.6 -13.2,265.65 30.48,334.28 68.02,106.85 186.18,738.83 237.2,902.76 60.02,192.79 17.07,116.65 141.99,169.03z"/>
  <path class="fil3" d="M12549.39 6883.95l117.38 29.59c11.65,-225.14 33.5,-376.1 29.63,-619.59 -6.1,-383.37 153.6,-153.7 117.77,-486.95 -80.26,-58.29 -161.17,-155.48 -293.32,-72.31 -150.23,94.54 -18.19,233.14 12.41,326.85 39.21,120.1 25.75,665.09 16.14,822.4z"/>
  <path class="fil3" d="M16808.9 3255.13c28.21,-293.32 -83.34,-387.4 -375.97,-294.86 -167.47,325.83 82.94,580.91 375.97,294.86z"/>
  <path class="fil3" d="M17587.57 6027.1c195.98,70.96 348.22,-31.95 290.43,-257.76 -186.8,-36.9 -362.26,41.21 -290.43,257.76z"/>
  <path class="fil3" d="M18167.39 4719.86c-34.7,163.33 -9.23,229.24 150.82,258.21 106.6,-97.81 138.4,-136.89 67.54,-305.79 -155.67,-65.46 -116.93,-31.52 -218.36,47.58z"/>
  <path class="fil3" d="M17342.9 5374.45c127.71,11.1 82.63,25.94 181.25,-23.35 49.87,-106.68 34.02,-86.82 18.66,-211.16 -254.08,-123.51 -309.85,13.18 -199.91,234.51z"/>
  <path class="fil3" d="M17769.09 5102.9c117.54,53.69 72.4,43.18 198.45,11.02 25.05,-150.17 24.03,-139.45 -29.25,-271.62l-169.12 4.16c-29.66,130.96 -39.01,133.76 -0.08,256.43z"/>
  <path class="fil4" d="M11492.47 16160.08c-237.96,386.51 -60.24,1198.25 342.57,1366.15 322.76,-219.86 75.63,-1365.74 -342.57,-1366.15z"/>
  <path class="fil4" d="M11241.45 9731.93c-360.33,255 -121.06,956.82 255.19,692.75 303.06,-212.7 89.58,-936.74 -255.19,-692.75z"/>
  <path class="fil4" d="M9112.44 4349.97c-233.2,206.23 61.65,496.95 275.12,337.45 198.09,-148 -24.51,-559.08 -275.12,-337.45z"/>
  <path class="fil1" d="M12103.49 3846.48c-624.95,354.38 -264.39,1129.8 332.75,942.34 607.02,-190.57 209.99,-1250.1 -332.75,-942.34z"/>
  <path class="fil1" d="M10609.48 13255.05c11.69,-138.19 -142.74,-1094.26 -183.58,-1224.29 -407.05,-1296.18 -1265.56,-885.28 183.58,1224.29z"/>
  <path class="fil1" d="M10039.31 9893.18c-429.8,323.07 -19.28,1263.47 488.66,1017.74 533.55,-258.12 -107.34,-1304.36 -488.66,-1017.74z"/>
  <path class="fil1" d="M10458.96 8610.54c-380.99,324.76 -93.46,1257.89 412.03,908.73 446.56,-308.46 -106.69,-1168.99 -412.03,-908.73z"/>
  <path class="fil1" d="M4110.86 11503.62c50.37,335.07 553.26,253.28 501.41,-87.08 -55.51,-364.27 -554.49,-266.12 -501.41,87.08z"/>
  <path class="fil5" d="M16971.1 6311.95c-921.74,203.31 -491.85,1199.46 384.97,1007.79 909.36,-198.8 491.13,-1201.05 -384.97,-1007.79z"/>
  <path class="fil5" d="M10815.51 13049.97c133.63,-50.97 115.48,-44.57 157.34,-216.48l200.9 -707.95c48.53,-183.21 134.37,-965.28 -70.42,-1036.42 -343.21,-119.2 -516.15,1307.41 -287.82,1960.84z"/>
  <path class="fil5" d="M9857.66 13401.68c-47.03,351.93 196.64,598.94 390.92,830.98 161.93,193.4 464.44,554.34 669.73,603.06 -7.66,-451.52 -480.86,-1547.26 -1060.65,-1434.04z"/>
  <path class="fil5" d="M11398.84 15595.04c238.48,-101.29 525.95,-1525.99 279.65,-1761.78 -428.32,58.6 -490.99,1448.43 -279.65,1761.78z"/>
  <path class="fil5" d="M10173.04 13128.59c-52.19,-402.46 -1012.88,-1249.36 -1308.03,-963.37 -316.64,306.84 1083.84,937.64 1308.03,963.37z"/>
  <path class="fil5" d="M11735.49 5326.91c-326.83,180.39 -10.59,741.62 350.07,535.66 267.02,-152.5 95.11,-781.38 -350.07,-535.66z"/>
  <path class="fil5" d="M5176.67 11793.93c54.43,172.83 246.79,232.72 418.46,173.26 765.9,-265.27 -694.92,-1051.28 -418.46,-173.26z"/>
  <path class="fil5" d="M17660.6 4063.49c-266.27,175.57 -71.05,600.33 221.72,467.49 295.98,-134.3 75.1,-663.22 -221.72,-467.49z"/>
  <path class="fil5" d="M4019.12 10411.56c-338.47,121.59 -133.33,497.65 112.41,430.22 269.41,-73.92 190.24,-538.94 -112.41,-430.22z"/>
  <path class="fil5" d="M12837.83 3567.49c107.1,58.19 171.56,62.35 297.68,47.7 360.72,-476.56 -447.51,-696.47 -297.68,-47.7z"/>
  <path class="fil5" d="M6311.98 11837.06c-18.67,212.12 -0.13,344.1 253.02,306.98 185.02,-27.13 197.67,-194.35 133.45,-340.27 -166.9,-135.75 -240.63,-72.98 -386.47,33.29z"/>
  <path class="fil5" d="M18178.84 5358.58c114.1,50.64 135.85,37.1 251.26,1.25l-2.97 -188.14c-175.25,-69.04 -349.14,-12.64 -248.29,186.88z"/>
  <path class="fil5" d="M18615.43 5155.71c178.77,25.42 304.14,-14.43 245.83,-215.71 -217.03,-68.66 -299.83,-12.51 -245.83,215.71z"/>
  <path class="fil5" d="M18635.17 5533.86c-138.01,318.17 387.18,183.97 191.35,-1.64 -104.33,-49.02 -89.19,-49.01 -191.35,1.64z"/>
  <path class="fil6" d="M17203.83 16184.7c246.11,-397.83 -2605.39,-926.98 -4095.72,1278.62 -443.76,656.75 2031.35,134.23 2357.7,28.76 446.46,-144.3 1489.58,-905.8 1738.03,-1307.38z"/>
  <path class="fil6" d="M17117.24 14638.48c-312.42,1097.61 -478.86,313.38 -721.17,710.2 128.95,142.45 413.97,0.32 584.62,11.46 95.76,6.25 955.99,584.4 832.63,59.09 -41.54,-176.85 -312.22,-148.69 -467.08,-192.58 65.31,-93.36 319.64,-200.73 439.35,-215.02 670.51,564.73 1027.8,-125.76 203.87,-120.88 104.86,-511.64 893.19,36.61 759.74,-568.73 -309.09,-86.28 -289.66,61.66 -560.76,64.5 -29.88,168.31 -195.99,352.24 -364.37,368.36 25.66,-185.7 209.38,-195.85 183.79,-461.16 -19.91,-206.32 -193.02,-253.27 -279.45,-28.6 -109.72,285.25 222.57,686.93 -422.53,781.74 31.17,-237.36 147.37,-178.6 107.04,-475.98 -153.63,-30.74 -174.86,7.13 -295.69,67.61z"/>
  <path class="fil6" d="M7964.07 2298.95c-628.86,323.71 -171.13,1325.45 488.88,1020.47 640.59,-296 185.21,-1367.47 -488.88,-1020.47z"/>
  <path class="fil6" d="M12294.13 11286.62c273.08,-388.95 -402.47,-910.6 -640.06,-363.03 -216.06,498 351.61,773.86 640.06,363.03z"/>
  <path class="fil6" d="M5253.09 6171.53c-356.26,223.08 -235.35,945.68 106.2,785.7 343.91,-161.07 280.37,-1027.75 -106.2,-785.7z"/>
  <path class="fil6" d="M4797.66 6392.26c279.92,-297.38 41.08,-846.65 -270.37,-744.51 -241.52,79.21 -221.4,762.33 270.37,744.51z"/>
  <path class="fil6" d="M4875.72 7179.6c41.3,-423.89 -509.57,-657.61 -659.89,-440.04 -93.93,135.95 48.27,307.52 156.34,384.05 173.41,122.81 309.56,116.4 503.55,55.99z"/>
  <path class="fil6" d="M19273.62 12030.63c85.77,325.76 614.31,231.89 550.79,-147.96 -61.28,-366.54 -659.76,-265.94 -550.79,147.96z"/>
  <path class="fil6" d="M5795.68 7535.8c-20.68,-142.63 -151.4,-312.01 -304.75,-247.58 -509.03,213.86 457.19,1298.71 304.75,247.58z"/>
  <path class="fil6" d="M5063.58 4698.66c-304.17,123.91 -125.92,633.03 200.8,515.26 349.11,-125.82 184.13,-672.08 -200.8,-515.26z"/>
  <path class="fil6" d="M4606.26 7496.99c-301.35,186.69 275.8,525.49 509.83,358.97 227.54,-161.9 -226.23,-534.67 -509.83,-358.97z"/>
  <path class="fil6" d="M18740.46 13208.65c48.7,282.16 580.74,241.88 465.6,-142.09 -92.24,-307.65 -523.52,-193.4 -465.6,142.09z"/>
  <path class="fil6" d="M18772.3 6596.21c-282.48,147.54 -89.45,561.5 202.31,425.14 239.67,-112.01 68.86,-566.79 -202.31,-425.14z"/>
  <path class="fil6" d="M18230.88 13657.65c-72.48,230.36 -147.24,250.39 19.72,484.6 137.49,-1.08 202.87,-69.34 295.68,-134.31 42.81,-316.76 24.1,-432.7 -315.4,-350.29z"/>
  <path class="fil6" d="M9860.49 1785.8c-223.88,120.02 -51.75,548.04 258.27,384.23 201.38,-106.39 47.4,-548.1 -258.27,-384.23z"/>
  <path class="fil7" d="M14282.53 7118.34l1101.12 -1422.02 -919.3 1470.05c537.06,335.84 2725.78,-1354.62 2681.22,-3330.31 -447.59,57.82 -1675.24,732.9 -2031.61,1058.23 -449.99,410.79 -1154.13,1677.35 -831.42,2224.04z"/>
  <path class="fil7" d="M11618.26 2577.06c-329.76,-369.02 -252.52,-1309.58 -1140.62,-1204.07 -197.21,2421.79 3084.14,2427.81 2952.23,39.2 -910.67,-172.84 -899.7,868.93 -1192.48,1166.62 -6.13,-7.97 402.2,-1850.38 -311.81,-1856.84 -207.95,-1.87 -436.8,614.14 -465.49,804.6 -59.36,394.17 238.71,941.73 158.18,1050.49z"/>
  <path class="fil7" d="M10029.63 5332.26c-206.69,142.16 2.08,958.79 115.12,1162.05 94.5,169.94 620.71,704.2 756.46,603.12 433.68,-322.9 -407.38,-2084.48 -871.58,-1765.18z"/>
  <path class="fil7" d="M11123.75 13980.63c146.68,-74.18 1147.21,-1699.4 810.92,-1897.45 -376.33,-221.6 -975.81,1505.62 -810.92,1897.45z"/>
  <path class="fil7" d="M14913.91 8082.78c380.91,30.68 1193.15,-258.37 1062.35,-731.17 -454.5,-218.58 -1100.64,351.32 -1062.35,731.17z"/>
  <path class="fil8" d="M8872.49 10961.97c-6.68,-437.58 -79.98,-1656.07 -443.09,-1881.98 -199.25,-123.99 -1332.64,-768.25 -1357.24,-909.35l1463.56 765.77c97.03,-180.6 -405.69,-1641.08 -486.24,-1927.79 -224.86,-800.5 -1022.57,-723.42 -1247.58,-1155.32l1023.28 452.72 -771.27 -1821.92 63.22 -30.49 837.15 1600.86 290.23 -758.34c172.01,270.68 -401.42,660.91 -52.45,1446.05 142.23,320 377.5,1358.87 547.9,1433.68l573.24 -1305.67c94.51,628.14 -686.42,1275.55 -499.47,1950.52 185.25,668.78 212.77,1662.59 371.51,2228.53 230.15,-175.15 638.59,-1784.08 691.78,-2144.43 134.57,-911.54 76.71,-1655.46 -242.24,-2515.59 -539.39,-1454.56 -1521.98,-2201.99 -2773.53,-3009.98 -447.01,-288.6 -410.06,285.88 -522.16,654.54 -130.53,429.25 -212,733.8 -265.97,1184.31 -107.99,901.36 -131.15,1686.73 186.86,2557.06 416.02,1138.57 1518.24,2626.4 2612.54,3186.82z"/>
  <path class="fil8" d="M14263.33 2585.73c-1223.5,795.6 -730.19,2969.68 -416.21,2842.22 945.88,-383.98 853.02,-3126.25 416.21,-2842.22z"/>
  <path class="fil8" d="M13913.03 1643.99c-292.05,152.04 -98.85,530.47 160.33,414.54 248.68,-111.25 87.01,-543.31 -160.33,-414.54z"/>
  <path class="fil9" d="M12726.51 17122.83c344.69,-233.87 654.58,-665.14 1123.55,-968.57 455.03,-294.4 879.96,-480.94 1358.18,-719.32 870.4,-433.89 1698.96,-1047.36 2362.03,-1759.51 1428.18,-1533.9 2143.68,-4067.6 2179.03,-6120.11 -3330.85,-98.58 -6517.93,1511.42 -7327,4976.14 -98.13,420.22 -401.42,3598 -17.88,3702.08 436.95,-754.26 331.61,-1863.27 1938.63,-4019.12 391.33,-524.97 2527.9,-2819.62 3068.59,-2819.58 -3.07,10.32 -1384.02,1296.98 -1565.07,1503.34 -540.01,615.47 -879.4,1092.78 -1330.29,1769.94 -643.92,967.05 -1730.78,3327.43 -1789.77,4454.72z"/>
  <path class="fil9" d="M7824.99 11275.03c-243.71,-1751.95 -2727.34,-3271.95 -4466.17,-3256.2 41.96,835.32 777.65,1900.98 1402.43,2435.84 947.73,811.32 1859.27,832.78 3063.73,820.37z"/>
  <path class="fil9" d="M12666.77 6913.54l-117.38 -29.59c-203.61,97.1 -472.15,704.65 -500.19,937.62 -45.91,381.41 262.54,926.69 272.77,1164.67 -454.21,-206.34 -200.45,-1369.48 -1270.89,-1307.11 -117.84,2569.02 3193.72,2336.59 2991.82,6.48 -987.16,-32.21 -777.9,675.92 -1184.85,1157.03 -99.41,-117.93 239.15,-636.06 200.02,-1017.92 -50.35,-491.4 -249.17,-571.56 -391.3,-911.17z"/>
  <path class="fil9" d="M9279.4 2409.25c-199.45,398.25 120.5,1326.49 340.53,1696.55 189.32,318.4 1011.27,983.63 1271.32,949.16 -212.9,-863.22 -778.95,-1409.82 -664.47,-1557.35 448.17,439.82 744.69,1367.79 910.69,1482.27 75.55,-2156.77 -1651.28,-2652.59 -1858.08,-2570.62z"/>
  <path class="fil9" d="M14834.34 4535.9c747.15,-94.01 1273.52,-1093.36 1209.84,-1834.26 -844.35,-6.52 -1264.16,1059.43 -1209.84,1834.26z"/>
  <path class="fil10" d="M10837.94 17421.88c12.42,-2431.26 -1317.07,-4349.7 -3698.05,-4846.19 -390.69,-81.47 -2279.89,-169.6 -2525.92,105.65 -161.74,180.94 569.6,1740.33 715.63,2007.64 1185.76,2170.64 2911.14,2803.63 5342.27,3247.29 -97.81,-582.34 -1161.42,-1887.36 -1575.64,-2361.75 -453.19,-519 -2097.24,-1648.49 -2154.61,-1725.95 301.9,-138.76 1964.56,1150.93 2272.99,1451.84 1216.11,1186.47 1320.98,1805.98 1623.34,2121.47z"/>
  <path class="fil10" d="M10815.51 13049.97c-228.33,-653.44 -55.39,-2080.05 287.82,-1960.84 204.79,71.13 118.95,853.2 70.42,1036.42l-200.9 707.95c-41.86,171.91 -23.7,165.52 -157.34,216.48zm-389.61 -1019.22c40.84,130.03 195.27,1086.1 183.58,1224.29 -1449.14,-2109.57 -590.63,-2520.47 -183.58,-1224.29z"/>
 </g>
</svg>
